<?xml version="1.0" encoding="UTF-8"?>
<svg version="1.1" xmlns="http://www.w3.org/2000/svg" width="300" height="300">
<path d="M0 0 C0.93457031 -0.01675781 1.86914062 -0.03351563 2.83203125 -0.05078125 C3.60933594 0.06910156 4.38664062 0.18898438 5.1875 0.3125 C7.75437367 4.1628105 7.02038724 5.89819763 6.1875 10.3125 C5.20910156 10.67601563 4.23070312 11.03953125 3.22265625 11.4140625 C-8.67617505 15.93233679 -20.07595815 20.96553724 -26.1328125 32.91796875 C-30.06282419 42.66055017 -29.90737769 51.63931723 -25.8125 61.3125 C-20.42406485 71.55220543 -13.32862143 77.27115775 -2.44921875 80.9765625 C0.76842779 82.60683675 1.77482195 84.02463008 3.1875 87.3125 C1.9875 92.5125 1.9875 92.5125 0.1875 94.3125 C-7.14261176 95.46509688 -12.30659959 91.74648087 -18.5 88.1875 C-27.79640475 82.95436873 -27.79640475 82.95436873 -37.21875 77.953125 C-38.15396484 77.47133789 -39.08917969 76.98955078 -40.05273438 76.49316406 C-42.91992029 75.26654419 -45.55775934 74.6996221 -48.625 74.1875 C-51.64325221 73.16267797 -53.29333019 72.26562858 -54.83886719 69.42822266 C-56.55657284 65.23088234 -57.83868714 60.91353133 -59.14453125 56.57421875 C-66.01616331 33.86955968 -82.86831818 16.27900909 -102.8125 4.3125 C-103.8025 3.9825 -104.7925 3.6525 -105.8125 3.3125 C-105.8125 2.6525 -105.8125 1.9925 -105.8125 1.3125 C-84.24328691 0.55617694 -66.80829299 5.63154707 -50.36328125 19.8203125 C-47.93234562 21.62242148 -47.93234562 21.62242148 -45.33984375 20.8125 C-42.44091791 19.09196287 -39.76835694 17.19936772 -37.0625 15.1875 C-31.93342614 11.50356414 -26.65505056 8.55127367 -20.9375 5.875 C-20.23657227 5.5454834 -19.53564453 5.2159668 -18.81347656 4.87646484 C-12.69486628 2.09329651 -6.80055265 0.02853379 0 0 Z " fill="#F1A020" transform="translate(289.8125,105.6875)"/>
<path d="M0 0 C3.39451295 0.57955099 4.35178793 1.83770261 6.5625 4.4375 C7.58203125 6.91796875 7.58203125 6.91796875 8.375 9.625 C11.84279328 19.7450193 18.62820953 26.85641103 28.05859375 31.7265625 C36.39568502 35.28404411 44.34476703 35.41278462 52.84375 32.1953125 C63.36529084 27.16893284 70.37112058 21.09411668 74.5 9.89453125 C74.97183447 8.38810141 75.41730178 6.87290285 75.82421875 5.34765625 C76.70246018 3.0753808 77.65474845 1.94142093 79.5625 0.4375 C83.64044425 0.01271414 85.09326119 0.12467413 88.5625 2.4375 C90.07526439 10.63000325 85.58881931 17.26351628 81.9375 24.3125 C77.66409558 32.698148 73.85578989 40.79784402 71.4375 49.9375 C70.31522506 53.85415254 69.43285506 56.75840131 66.109375 59.3515625 C62.97061926 60.65238373 59.83202457 61.51645548 56.5625 62.4375 C53.81545617 63.59301907 51.15811917 64.90398973 48.5 66.25 C47.81389648 66.59675781 47.12779297 66.94351563 46.42089844 67.30078125 C26.56009809 77.55887038 12.98027094 93.42473675 3.5625 113.4375 C2.9025 113.4375 2.2425 113.4375 1.5625 113.4375 C-2.53693028 101.13920915 1.99466272 84.65300573 7.171875 73.19140625 C9.98295725 67.62451583 12.9593709 62.32837022 17 57.5625 C18.81384912 55.61056411 18.81384912 55.61056411 18.3034668 53.49853516 C17.08385396 50.10612278 14.64585781 47.55795409 12.375 44.8125 C4.04379842 34.42629549 -5.52454388 21.06629055 -6 7.1875 C-5.34477494 2.81933291 -4.48128032 0.80433237 0 0 Z " fill="#8C1A4D" transform="translate(107.4375,6.5625)"/>
<path d="M0 0 C0.66 0 1.32 0 2 0 C3.01557666 20.55978531 -0.88953052 38.2869746 -14.5 54.375 C-15.7375 55.674375 -15.7375 55.674375 -17 57 C-15.55503624 61.15997462 -13.48036652 64.27664544 -10.875 67.8125 C-7.32761245 72.7720457 -4.33707031 77.85177917 -1.625 83.3125 C-1.3038623 83.95743408 -0.98272461 84.60236816 -0.65185547 85.2668457 C5.4420588 97.83896065 5.4420588 97.83896065 5.3125 104.875 C5.30863281 105.80054688 5.30476563 106.72609375 5.30078125 107.6796875 C5 110 5 110 3 112 C-0.4375 112.375 -0.4375 112.375 -4 112 C-6.61962958 109.23412897 -7.67753242 106.40397275 -8.8125 102.8125 C-12.44720352 92.48663773 -18.38973688 84.81132269 -28.125 79.6875 C-37.22609363 75.48565409 -45.51785723 76.60298862 -54.8125 79.6796875 C-63.20866268 83.15750979 -68.81176929 89.02426436 -73 97 C-73.71360612 98.78142976 -74.40162939 100.57334084 -75.0625 102.375 C-76.25541844 105.52666106 -76.8795807 106.88591856 -79.375 109.25 C-82.87289446 110.24939842 -84.73894349 109.48229841 -88 108 C-89 107 -89 107 -89.28393555 103.90063477 C-88.96086036 99.46230952 -87.57168833 96.40028043 -85.45703125 92.58984375 C-85.09155685 91.90048233 -84.72608246 91.21112091 -84.34953308 90.50086975 C-83.18400029 88.30554733 -82.0001082 86.12094826 -80.8125 83.9375 C-79.2655185 81.07779145 -77.72979161 78.2125248 -76.20703125 75.33984375 C-75.83506119 74.64143875 -75.46309113 73.94303375 -75.07984924 73.22346497 C-72.13184044 67.55814891 -70.04515567 61.83213626 -68.22949219 55.71728516 C-66.77294634 52.49819157 -65.65765974 51.75787456 -62.4375 50.4375 C-60.63128017 49.93517851 -58.81819353 49.45708776 -57 49 C-31.68406066 39.45464582 -12.60786865 24.05372176 0 0 Z " fill="#E32629" transform="translate(190,182)"/>
<path d="M0 0 C4.00687249 0.31499113 6.93697926 1.70230914 10.44140625 3.515625 C24.10131469 10.21897355 38.21219707 13.66165256 53.44140625 13.640625 C54.42786133 13.64191406 55.41431641 13.64320313 56.43066406 13.64453125 C64.57994979 13.5289758 72.09898952 12.21821908 79.95703125 10.140625 C83.37890625 9.265625 83.37890625 9.265625 86.37890625 9.265625 C82.73974474 20.01600517 70.9206925 25.38075149 61.37890625 30.265625 C53.23928293 34.04993405 45.30694469 36.28841874 36.359375 36.921875 C34.06558132 37.18255916 34.06558132 37.18255916 31.37890625 39.265625 C30.7710656 41.13200346 30.7710656 41.13200346 30.60546875 43.30859375 C30.50580811 44.12779297 30.40614746 44.94699219 30.3034668 45.79101562 C30.20461182 46.66951172 30.10575684 47.54800781 30.00390625 48.453125 C28.16444058 62.39066282 24.60948398 80.76114774 13.37890625 90.265625 C10.31640625 90.765625 10.31640625 90.765625 7.37890625 90.265625 C5.44140625 88.703125 5.44140625 88.703125 4.37890625 86.265625 C4.45875879 82.11329294 5.38131229 79.05414571 7.31640625 75.453125 C11.82903164 66.85607955 12.15503829 57.71511182 10.37890625 48.265625 C7.28862658 39.05889968 1.71533971 32.77758009 -6.87109375 28.390625 C-15.21653731 24.47707848 -24.85816192 23.72135581 -33.828125 26.125 C-36.16801897 27.07055013 -38.39647052 28.07693147 -40.62109375 29.265625 C-43.70435725 30.80725675 -46.22987474 30.56310035 -49.62109375 30.265625 C-51.99575657 28.19737029 -52.50795022 26.83134265 -53.12109375 23.765625 C-52.39938077 20.15706008 -50.59904426 19.33239058 -47.62109375 17.265625 C-44.73706055 16.09643555 -44.73706055 16.09643555 -41.5703125 15.15234375 C-39.82004761 14.61577148 -39.82004761 14.61577148 -38.03442383 14.06835938 C-36.8048999 13.70033203 -35.57537598 13.33230469 -34.30859375 12.953125 C-24.00716512 9.76611845 -10.25375662 1.03912884 0 0 Z " fill="#55AE48" transform="translate(69.62109375,191.734375)"/>
<path d="M0 0 C4.5960204 7.88736403 7.16128633 16.75019718 10.06738281 25.36499023 C12.73180412 33.23483153 15.56328414 40.64033392 19.86694336 47.8034668 C21 50 21 50 21.1875 53.5 C19.86702378 57.39192991 18.17446167 60.98535794 16.40625 64.69140625 C14.71854097 68.66221055 13.45677062 72.67436411 12.25 76.8125 C12.03956055 77.52970215 11.82912109 78.2469043 11.61230469 78.98583984 C6.50888321 96.91463558 7.76625252 116.28092722 13 134 C13.35447682 135.66229813 13.69735505 137.32748844 14 139 C2.16659736 133.74070994 -5.39217945 120.36268868 -10.27734375 108.90771484 C-12.02681817 104.28933879 -13.10267814 99.50337538 -14.17578125 94.69140625 C-14.98446577 91.06957272 -15.94897624 87.55695816 -17 84 C-18.02601318 83.85751831 -18.02601318 83.85751831 -19.07275391 83.7121582 C-44.56063209 80.10133975 -44.56063209 80.10133975 -56 75 C-56.97453125 74.57460937 -57.9490625 74.14921875 -58.953125 73.7109375 C-66.55371128 70.17123589 -66.55371128 70.17123589 -69 66 C-68.8125 62.3125 -68.8125 62.3125 -68 59 C-64.96730241 57.4836512 -62.27832256 57.45750178 -59 58 C-56.12185134 59.1554307 -53.35700256 60.47621752 -50.5625 61.8203125 C-47.62099809 63.17447954 -45.23412793 63.7935663 -42 64 C-41.26394531 64.05027344 -40.52789062 64.10054688 -39.76953125 64.15234375 C-30.82537937 64.4990163 -22.88641175 62.60755702 -15.8828125 56.8515625 C-8.09241867 49.19046982 -4.77221846 40.83964925 -3.5625 30.125 C-3.83207911 23.30039189 -6.23418111 15.64872834 -10 10 C-10.52461589 7.26095284 -10.55745011 4.73605614 -10 2 C-6.79109916 -1.02553507 -4.03742797 -1.96695209 0 0 Z " fill="#016591" transform="translate(84,17)"/>
<path d="M0 0 C2.875 0.875 2.875 0.875 4.875 3.875 C4.78027735 8.51640992 3.62726664 11.5499609 1.4375 15.625 C-3.41668309 24.9253334 -4.47958268 35.23785616 -1.37109375 45.3203125 C2.48149216 54.83088023 8.73124427 60.41010836 17.875 64.875 C28.12763235 68.98786019 37.64235874 67.06836939 47.515625 62.87109375 C51.41568091 61.71468182 53.94371031 61.93575098 57.875 62.875 C60.00646156 65.27289426 59.875 66.7344693 59.875 69.9375 C58.875 72.875 58.875 72.875 56.21923828 74.44189453 C52.94810826 75.84367094 49.80922141 76.84799007 46.3671875 77.7421875 C45.13226563 78.07089844 43.89734375 78.39960937 42.625 78.73828125 C40.06599245 79.4084052 37.50564627 80.07322535 34.9453125 80.73828125 C26.21332366 83.06620774 17.71245301 85.74628367 9.71679688 90.03173828 C6.81537131 91.36014813 4.91617188 90.68893895 1.875 89.875 C-0.63965857 88.68179172 -3.05911784 87.45045613 -5.5 86.125 C-27.78090291 74.55043767 -50.85441913 72.53381173 -75.125 77.875 C-76.79098607 78.21171845 -78.45735944 78.54657366 -80.125 78.875 C-79.24078453 73.08274796 -74.56341649 70.22658126 -70.125 66.875 C-55.98372317 57.70227989 -41.89011708 53.06579336 -25.125 51.875 C-23.6752823 47.85012585 -22.66705327 43.89012073 -21.83251953 39.70898438 C-19.23179871 26.79697448 -15.30604092 10.18640271 -5.140625 1.1015625 C-3.125 -0.125 -3.125 -0.125 0 0 Z " fill="#404443" transform="translate(226.125,17.125)"/>
<path d="M0 0 C10.54838469 4.4288929 17.10845394 17.42690989 21.47265625 27.34765625 C24.37943661 34.8646072 25.78409424 41.95395601 26.54296875 49.91796875 C26.80009705 53.16235069 26.80009705 53.16235069 29 56 C31.04316678 56.68551141 31.04316678 56.68551141 33.4453125 56.95703125 C34.34991211 57.0967334 35.25451172 57.23643555 36.18652344 57.38037109 C37.64106934 57.5942749 37.64106934 57.5942749 39.125 57.8125 C52.15843319 59.96070498 66.56264386 63.3482608 77 72 C78.80078125 74.515625 78.80078125 74.515625 80 77 C79.10394232 80.85304802 78.34846101 81.76769266 75 84 C69.83674658 83.87406699 65.8187211 81.54149542 61.3671875 79.15625 C53.89451489 75.50623169 43.20199108 75.81056402 35.1640625 77.6484375 C26.7994557 81.08232871 19.72222197 87.76897331 16 96 C11.52924239 108.42070402 13.15722708 117.94421345 18.13671875 129.8359375 C19 133 19 133 18.33203125 135.7890625 C17 138 17 138 14 140 C11.0625 140.1875 11.0625 140.1875 8 139 C3.82472265 132.48323496 2.23364625 124.23721535 0.1875 116.875 C-2.41956262 107.72183565 -5.29567171 99.23183422 -9.75 90.8203125 C-11.10192544 87.77003072 -11.53966206 86.27832092 -11 83 C-9.84071679 80.66417377 -8.64135625 78.48301123 -7.3125 76.25 C4.48510889 55.20893063 6.88117099 29.78481505 0.62109375 6.6015625 C0 4 0 4 0 0 Z " fill="#E85527" transform="translate(203,143)"/>
<path d="M0 0 C3.29467773 1.29760742 3.29467773 1.29760742 6.68359375 3.10546875 C7.30162369 3.42655106 7.91965363 3.74763336 8.55641174 4.07844543 C10.52413307 5.10145269 12.48160563 6.14207894 14.4375 7.1875 C16.99078314 8.55087214 19.55003001 9.90090303 22.12109375 11.23046875 C22.75647064 11.55973358 23.39184753 11.88899841 24.04647827 12.22824097 C29.44693509 14.92800339 34.97967456 16.74054941 40.83872986 18.1804657 C44.13255595 19.06119663 45.76053121 19.68901253 47.87036133 22.42895508 C49.01620812 25.0368895 50.01949874 27.67027792 50.9387207 30.36645508 C59.74143178 56.12949456 77.48085647 73.93380915 101 87 C101 87.66 101 88.32 101 89 C83.00516293 91.75004155 64.89888882 86.1321655 50 76 C48.81427413 75.02267443 47.64341407 74.0265064 46.5 73 C45.675 72.34 44.85 71.68 44 71 C39.5847117 71.53130709 36.64072275 74.40954278 33.25 77.0625 C23.32000133 84.59263635 8.61959885 94.57895077 -4.375 94.3125 C-5.20773438 94.30863281 -6.04046875 94.30476563 -6.8984375 94.30078125 C-9 94 -9 94 -11 92 C-11.5 88.625 -11.5 88.625 -11 85 C-7.84870993 82.09111686 -4.71833961 80.86846529 -0.6875 79.6875 C8.15456822 76.93365721 15.77221506 69.77180235 20.25390625 61.7578125 C24.11402503 53.33818059 24.26023765 45.01481859 21.375 36.25 C19.29828522 31.18573062 16.67300347 27.04743586 13 23 C12.51015625 22.45601562 12.0203125 21.91203125 11.515625 21.3515625 C7.01156384 16.95898801 1.78429665 15.17003526 -4.109375 13.17578125 C-6.84442588 12.06328082 -8.27110381 11.35487585 -10 9 C-10.38976435 5.88188517 -10.50422245 3.88980433 -8.9375 1.125 C-5.91444835 -0.63032031 -3.44833159 -0.2401481 0 0 Z " fill="#248CC9" transform="translate(16,102)"/>
<path d="M0 0 C4.67691696 4.00878597 8.09107025 8.03519094 8.8828125 14.28515625 C9.17980944 20.05679683 8.1210465 24.58521703 4.625 29.25 C-0.78646948 34.20641409 -5.61741896 35.56632919 -12.87890625 35.4609375 C-18.55286459 34.98144806 -22.35549815 31.85552946 -26.1171875 27.84765625 C-29.24965918 23.86883353 -29.83962538 19.30462968 -29.6875 14.33203125 C-28.90834028 9.14087963 -26.38310545 4.8595762 -22.5 1.375 C-15.26055009 -3.54782594 -7.81741182 -4.0534728 0 0 Z " fill="#016592" transform="translate(64.375,38.75)"/>
<path d="M0 0 C3.7067943 2.59727764 5.98503852 6.09661619 7.72265625 10.20703125 C8.66795384 16.48780658 8.50327936 21.83108628 5.03515625 27.26953125 C1.71463991 31.59010898 -1.78705347 34.39963562 -7.27734375 35.20703125 C-13.96689834 35.71190329 -18.46769555 34.05884484 -24.02734375 30.39453125 C-28.63880396 25.91116715 -29.49978744 22.00818103 -29.71484375 15.70703125 C-29.58163743 10.38483315 -29.05810859 7.19216176 -25.27734375 3.20703125 C-17.7416781 -3.74896781 -9.00292319 -5.06526295 0 0 Z " fill="#E95526" transform="translate(253.27734375,228.79296875)"/>
<path d="M0 0 C4.69981473 2.79353474 8.23921737 6.10343474 10.71484375 11.0546875 C11.37138479 18.75020953 11.59546263 24.85498244 6.71484375 31.0546875 C2.42559601 35.2310603 -1.69797265 36.76179879 -7.59765625 37.4296875 C-13.38028264 36.8416238 -17.95666707 35.31160427 -22.19140625 31.20703125 C-26.20298534 25.99387069 -27.09849252 21.37229934 -26.7421875 14.859375 C-25.87857169 9.55957883 -23.76854035 6.46200062 -19.84765625 2.7421875 C-13.82435364 -1.22437763 -6.91961206 -2.862472 0 0 Z " fill="#404444" transform="translate(256.28515625,39.9453125)"/>
<path d="M0 0 C4.4853179 4.41126784 6.22430182 8.3379825 6.5625 14.625 C6.40009874 20.30904418 4.75862679 23.97981537 1.0625 28.25 C-4.15825537 33.09784427 -8.31580397 33.54665055 -15.21484375 33.46484375 C-20.1032176 33.07910406 -22.91011044 31.08624731 -26.625 28.0625 C-30.51607991 23.33010551 -32.30629104 18.86232541 -31.875 12.6875 C-30.96806522 7.03134762 -28.70979447 3.07152488 -24.6875 -1.0625 C-16.69806823 -5.96510586 -7.45249244 -5.974572 0 0 Z " fill="#55AE49" transform="translate(67.9375,227.75)"/>
<path d="M0 0 C3.9285121 2.94424436 6.2584475 6.74018625 7.79296875 11.34375 C8.33078753 17.35284059 8.26147366 22.20079445 4.79296875 27.34375 C-1.40724028 34.16397994 -1.40724028 34.16397994 -6.5703125 34.6796875 C-8.52517578 34.69902344 -8.52517578 34.69902344 -10.51953125 34.71875 C-11.81503906 34.74710937 -13.11054688 34.77546875 -14.4453125 34.8046875 C-19.4436234 34.19222573 -22.29513663 32.21023145 -25.8515625 28.73828125 C-29.23959251 24.14914361 -30.51379148 20.0667455 -30.20703125 14.34375 C-29.22505931 8.15528099 -26.96476551 4.26232722 -21.95703125 0.49609375 C-14.99885101 -4.08574369 -7.23612417 -4.04414125 0 0 Z " fill="#E42629" transform="translate(159.20703125,265.65625)"/>
<path d="M0 0 C4.92169521 2.43599056 7.28354594 5.76859458 10 10.4375 C11.90857939 17.23681407 11.6721216 22.05592793 8.26953125 28.17578125 C5.24884904 32.51626923 1.15074258 35.65099599 -4 37 C-10.33150012 37.6227705 -14.76353924 36.70331142 -20 33 C-24.95644289 28.3661022 -26.80529596 24.96923664 -27.25 18.1875 C-27.11410201 12.07209066 -24.90139448 7.55757605 -20.8125 3.0625 C-14.81564808 -1.84401521 -7.22738521 -1.29988943 0 0 Z " fill="#8C1A4D" transform="translate(157,0)"/>
<path d="M0 0 C4.77553468 2.74665021 7.73753752 6.48450092 9.8125 11.5625 C10.89331081 17.47974481 10.71222297 22.77169793 7.6875 28.0625 C4.55558317 32.34219316 0.84022212 34.88659263 -4.1875 36.5625 C-10.57809569 37.33138824 -15.95972148 36.46934091 -21.1875 32.5625 C-24.46419568 29.54234277 -25.45521531 27.24653159 -25.75390625 22.91015625 C-25.77372929 21.14854855 -25.77181131 19.38658421 -25.75 17.625 C-25.77384766 16.74392578 -25.79769531 15.86285156 -25.82226562 14.95507812 C-25.81249379 10.60661366 -25.636176 7.51695541 -22.85546875 4.05078125 C-16.35933105 -2.00784205 -8.16026036 -3.39491748 0 0 Z " fill="#238CCA" transform="translate(25.1875,131.4375)"/>
<path d="M0 0 C7.25854583 5.01185307 7.25854583 5.01185307 8.09179688 9.10620117 C8.26254632 11.85799299 8.25763156 14.55651922 8.1875 17.3125 C8.19845703 18.24964844 8.20941406 19.18679687 8.22070312 20.15234375 C8.17459492 24.48651545 8.05742165 27.10539541 5.76171875 30.859375 C1.13833715 35.08550078 -4.11404873 36.96102622 -10.375 36.8125 C-17.10549562 35.82613426 -20.81722316 32.93867169 -25.0625 27.75 C-28.29286957 22.98135921 -28.04732115 17.3421526 -27.375 11.8125 C-25.31474857 6.64904829 -22.02133232 2.86929758 -17.375 -0.1875 C-11.7337252 -2.06792493 -5.59316369 -1.967965 0 0 Z " fill="#F29F20" transform="translate(292.375,135.1875)"/>
<path d="M0 0 C-0.5775 0.268125 -1.155 0.53625 -1.75 0.8125 C-4.03995273 1.93639072 -4.03995273 1.93639072 -6 3.5625 C-8.04443806 5.03193986 -9.54522028 5.56164648 -12 6 C-12.33 5.34 -12.66 4.68 -13 4 C-8.38987758 1.04952165 -5.63470383 -0.5497272 0 0 Z " fill="#5FA655" transform="translate(73,192)"/>
<path d="M0 0 C0 0.99 0 1.98 0 3 C-0.66 3.66 -1.32 4.32 -2 5 C-2.33 5.66 -2.66 6.32 -3 7 C-5.0625 7.625 -5.0625 7.625 -7 8 C-5.50902342 4.2047869 -3.24299151 2.38957269 0 0 Z " fill="#D82C2A" transform="translate(139,265)"/>
<path d="M0 0 C1.65 0 3.3 0 5 0 C5.33 1.32 5.66 2.64 6 4 C5.01 4 4.02 4 3 4 C1.3125 2 1.3125 2 0 0 Z " fill="#5FA752" transform="translate(72,226)"/>
</svg>
